# xmcd
#
# Track frame offsets: 
#        150
#        16386
#        32300
#        44774
#        63958
#        80158
#        99744
#        112834
#        129799
#        146952
#        161413
#        174852
#        187264
#        200703
#        210318
#        224973
#
# Disc length: 3117 seconds
#
# Revision: 2
# Processed by: cddbd v1.5.2PL0 Copyright (c) Steve Scherf et al.
# Submitted via: ExactAudioCopy v1.3
#
DISCID=ea0c2b10
DTITLE=Frédérique Spigt - Land
DYEAR=2011
DGENRE=Country
TTITLE0=Land
TTITLE1=Little valley town
TTITLE2=Dogman
TTITLE3=Love you like no other
TTITLE4=Hunted like a fox
TTITLE5=Queen bee
TTITLE6=Lonely Betty blue
TTITLE7=Staring at the fan
TTITLE8=Tessie rides her palomino
TTITLE9=Momma's only screaming
TTITLE10=Catastrophe
TTITLE11=Drunk and crazy
TTITLE12=My horse is crippled
TTITLE13=I'm sure you wish you had
TTITLE14=Horses
TTITLE15=Moon
EXTD=YEAR: 2011
EXTT0=
EXTT1=
EXTT2=
EXTT3=
EXTT4=
EXTT5=
EXTT6=
EXTT7=
EXTT8=
EXTT9=
EXTT10=
EXTT11=
EXTT12=
EXTT13=
EXTT14=
EXTT15=
PLAYORDER=
